<svg width="22" height="22" viewBox="0 0 22 22" fill="none" xmlns="http://www.w3.org/2000/svg">
<path fill-rule="evenodd" clip-rule="evenodd" d="M12.8323 0C11.8209 0 11 0.820864 11 1.83342C11 2.84598 11.8209 3.66685 12.8323 3.66685C13.846 3.66685 14.6666 2.84598 14.6666 1.83342C14.6666 0.820864 13.846 0 12.8323 0ZM19.0931 15.7399L14.6662 11.3132V7.33337H16.4996V5.5H5.49959V7.33342H7.33301V11.3132L2.90605 15.7399C2.24191 16.4032 1.83188 17.3198 1.83301 18.3335C1.83301 19.346 2.24277 20.2618 2.90718 20.9259C3.57045 21.59 4.48703 22 5.49959 22H16.4996C17.5121 22 18.4287 21.59 19.092 20.9258C19.7553 20.2617 20.1662 19.346 20.1662 18.3334C20.1672 17.3198 19.7573 16.4032 19.0931 15.7399ZM9.16616 12.0725V7.33342H12.833V12.0725L15.3724 14.6118C14.6472 14.6091 13.9113 14.484 13.2009 14.1892C11.843 13.6263 10.2692 13.5817 8.80093 14.1887C8.1181 14.4722 7.37861 14.6075 6.62762 14.6108L9.16616 12.0725ZM17.7948 19.6306C17.4494 19.976 16.9891 20.1666 16.4996 20.1666H5.49959C5.01007 20.1666 4.54976 19.976 4.20322 19.6295C3.85781 19.283 3.66616 18.8221 3.66616 18.3315C3.66616 17.842 3.85593 17.3828 4.20241 17.0363L4.96968 16.2682C6.47777 16.6073 8.04721 16.4874 9.50277 15.8824C10.4697 15.4831 11.5348 15.4823 12.4997 15.8832C13.435 16.271 14.4181 16.4643 15.4002 16.4643C15.948 16.4643 16.4933 16.3934 17.0312 16.271L17.7974 17.0372C18.143 17.3828 18.3328 17.8421 18.3328 18.3335C18.333 18.8221 18.1424 19.283 17.7948 19.6306ZM10.083 3.2085C10.083 3.96789 9.4674 4.5835 8.70801 4.5835C7.94862 4.5835 7.33301 3.96789 7.33301 3.2085C7.33301 2.4491 7.94862 1.8335 8.70801 1.8335C9.4674 1.8335 10.083 2.4491 10.083 3.2085Z" fill="#3E68FC" style="fill:#3E68FC;fill:color(display-p3 0.2431 0.4078 0.9882);fill-opacity:1;"/>
</svg>
